<svg width="30" height="30" viewBox="0 0 14 14" fill="none" xmlns="http://www.w3.org/2000/svg">
<path d="M11.8288 0.368439H1.77161C1.40788 0.368439 1.05906 0.516266 0.801863 0.779399C0.54467 1.04253 0.400181 1.39942 0.400181 1.77155L0.400181 12.061C0.400181 12.4331 0.54467 12.79 0.801863 13.0532C1.05906 13.3163 1.40788 13.4641 1.77161 13.4641H11.8288C12.1925 13.4641 12.5413 13.3163 12.7985 13.0532C13.0557 12.79 13.2002 12.4331 13.2002 12.061V1.77155C13.2002 1.39942 13.0557 1.04253 12.7985 0.779399C12.5413 0.516266 12.1925 0.368439 11.8288 0.368439ZM11.3605 9.3533L10.9319 11.2533C10.9101 11.3499 10.857 11.4361 10.7812 11.4979C10.7054 11.5596 10.6114 11.5933 10.5145 11.5933C5.94304 11.5933 2.22875 7.80169 2.22875 3.11619C2.23215 3.01799 2.26627 2.9235 2.32609 2.84662C2.3859 2.76974 2.46826 2.71453 2.56104 2.68912L4.41818 2.25065C4.44986 2.2438 4.48209 2.23998 4.51447 2.23925C4.59734 2.24353 4.67759 2.27043 4.74687 2.31715C4.81616 2.36388 4.87195 2.42873 4.90847 2.50496L5.76561 4.55116C5.7866 4.60633 5.79829 4.66475 5.80018 4.72392C5.7932 4.85372 5.73679 4.97555 5.64304 5.0633L4.56047 5.96947C5.21641 7.39185 6.33535 8.53663 7.72561 9.20773L8.61132 8.10015C8.69708 8.00423 8.81617 7.94651 8.94304 7.93937C9.00088 7.94128 9.05798 7.95324 9.11189 7.97474L11.1119 8.85169C11.1864 8.88899 11.2499 8.94607 11.2955 9.01696C11.3412 9.08786 11.3675 9.16998 11.3716 9.25479C11.371 9.28792 11.3673 9.32091 11.3605 9.3533Z" fill="#666666"/>
</svg>
